#!OML:ASF F:\VICON\USERDATA\INSTALL\rory3\rory3.ASF
:FULLY-SPECIFIED
:DEGREES
2871
root 0.257576 18.4718 2.67421 -4.5623 23.3687 0.506881
lowerback 23.2858 -4.94397 -7.82964
upperback 7.5843 -7.86276 2.52277
thorax -3.03514 -3.99279 9.09873
lowerneck -13.2282 -3.55598 -6.75383
upperneck 6.44764 -4.63065 10.4891
head 4.5028 -1.84398 3.99889
rclavicle -1.23321e-013 8.08557e-014
rhumerus -9.71498 -5.09504 -58.9992
rradius 86.9094
rwrist -16.6003
rhand -30.6521 7.55359
rfingers 7.12502
rthumb -3.94719 -22.3896
lclavicle -1.23321e-013 8.08557e-014
lhumerus 43.7147 1.24442 81.2302
lradius 137.633
lwrist 21.472
lhand -28.5188 16.7524
lfingers 7.12502
lthumb -1.88695 46.7238
rfemur -83.5116 -1.60658 3.37408
rtibia 123.242
rfoot 1.00491 -1.772
rtoes -3.13646
lfemur -13.4088 -7.33905 -24.2917
ltibia 32.9166
lfoot -9.82399 -0.796149
ltoes 10.1219
2872
root 0.267853 18.4872 2.6646 -4.60606 23.5535 0.781899
lowerback 23.5344 -5.15325 -7.93221
upperback 7.849 -8.15109 2.61195
thorax -2.77329 -4.16445 9.32066
lowerneck -13.1764 -3.51765 -6.8598
upperneck 6.24295 -4.5596 10.6089
head 4.4313 -1.81003 4.06023
rclavicle 3.05802e-014 -4.45588e-014
rhumerus -10.27 -5.96024 -58.96
rradius 86.2713
rwrist -16.7539
rhand -30.727 6.87599
rfingers 7.12502
rthumb -4.01956 -23.0658
lclavicle 3.05802e-014 -4.45588e-014
lhumerus 43.8544 0.828041 81.5152
lradius 137.806
lwrist 21.2495
lhand -28.9898 16.8687
lfingers 7.12502
lthumb -2.34183 46.8356
rfemur -84.795 -2.05583 3.39424
rtibia 124.136
rfoot 0.940925 -1.41087
rtoes -3.2931
lfemur -12.9674 -7.34979 -24.6357
ltibia 32.3733
lfoot -9.54301 -0.907405
ltoes 10.6564
2873
root 0.277197 18.4965 2.65466 -4.59427 23.6729 1.03742
lowerback 23.632 -5.31791 -8.04131
upperback 8.15182 -8.37191 2.72088
thorax -2.40073 -4.31354 9.53038
lowerneck -13.2707 -3.50546 -6.88093
upperneck 6.06644 -4.52305 10.6267
head 4.39064 -1.79201 4.07129
rclavicle -9.36276e-014 4.11484e-014
rhumerus -10.7192 -7.00278 -58.9357
rradius 85.4672
rwrist -16.6979
rhand -30.7651 6.41715
rfingers 7.12502
rthumb -4.05634 -23.524
lclavicle -9.36276e-014 4.11484e-014
lhumerus 43.9795 0.309481 81.7242
lradius 137.928
lwrist 21.2357
lhand -30.0917 15.9464
lfingers 7.12502
lthumb -3.40604 45.899
rfemur -86.1904 -2.45512 3.47628
rtibia 125.002
rfoot 0.899129 -1.11897
rtoes -3.03087
lfemur -12.5859 -7.28972 -24.9464
ltibia 31.7742
lfoot -9.18769 -1.02284
ltoes 10.9923
2874
root 0.286259 18.5097 2.64791 -4.65049 23.735 1.17678
lowerback 23.956 -5.50069 -7.93585
upperback 8.28563 -8.59198 2.76495
thorax -2.3728 -4.42733 9.59466
lowerneck -13.3859 -3.47059 -6.67327
upperneck 6.09831 -4.4976 10.5084
head 4.40911 -1.77737 4.00099
rclavicle 3.06874e-014 2.90723e-014
rhumerus -11.4019 -7.73405 -58.9014
rradius 84.4482
rwrist -16.7162
rhand -30.9057 7.10593
rfingers 7.12502
rthumb -4.19208 -22.8326
lclavicle 3.06874e-014 2.90723e-014
lhumerus 43.8322 -0.169712 81.8251
lradius 138.013
lwrist 21.4663
lhand -30.5834 15.0522
lfingers 7.12502
lthumb -3.88081 44.9966
rfemur -87.4334 -2.68223 3.70576
rtibia 125.749
rfoot 0.752019 -1.07381
rtoes -3.17712
lfemur -12.1559 -7.2015 -25.1382
ltibia 31.168
lfoot -8.86697 -1.09214
ltoes 11.1139
2875
root 0.298939 18.5218 2.64771 -4.65699 23.87 1.59164
lowerback 24.1831 -5.60712 -8.08279
upperback 8.31268 -8.77677 2.6942
thorax -2.40168 -4.51813 9.66335
lowerneck -12.7156 -3.41751 -6.35454
upperneck 5.81927 -4.48274 10.4279
head 4.20388 -1.79062 3.92869
rclavicle 4.65653e-014 -3.68746e-014
rhumerus -12.5037 -8.46738 -58.7288
rradius 83.5107
rwrist -16.8229
rhand -30.8677 7.56505
rfingers 7.12502
rthumb -4.15538 -22.3742
lclavicle 4.65653e-014 -3.68746e-014
lhumerus 43.4103 -0.742572 82.1263
lradius 138.197
lwrist 21.2079
lhand -30.4185 14.9899
lfingers 7.12502
lthumb -3.72165 44.9371
rfemur -88.472 -3.07169 3.60737
rtibia 126.477
rfoot 0.459611 -1.01771
rtoes -3.28259
lfemur -11.6357 -7.20656 -25.6405
ltibia 30.617
lfoot -8.66754 -1.1204
ltoes 11.1646
2876
root 0.311005 18.5308 2.64864 -4.65891 24.0371 2.06387
lowerback 24.3826 -5.77861 -8.28368
upperback 8.49014 -9.04627 2.67156
thorax -2.21043 -4.67414 9.81297
lowerneck -12.6641 -3.39795 -6.32673
upperneck 5.67387 -4.45235 10.4282
head 4.14805 -1.7792 3.92682
rclavicle -2.20651e-014 -4.87022e-015
rhumerus -13.0847 -9.19411 -58.5679
rradius 82.6243
rwrist -16.9262
rhand -30.7434 7.0499
rfingers 7.12502
rthumb -4.03533 -22.8916
lclavicle -2.20651e-014 -4.87022e-015
lhumerus 43.203 -1.04709 82.5678
lradius 138.522
lwrist 20.6137
lhand -30.1528 14.8244
lfingers 7.12502
lthumb -3.465 44.776
rfemur -89.4257 -3.52426 3.44069
rtibia 127.154
rfoot 0.239699 -0.970089
rtoes -2.29242
lfemur -11.1388 -7.22433 -26.2042
ltibia 30.1274
lfoot -8.48251 -1.14896
ltoes 11.2491
2877
root 0.318407 18.5363 2.64389 -4.68711 24.1758 2.25147
lowerback 24.558 -6.01078 -8.22971
upperback 8.74007 -9.32543 2.72841
thorax -1.9518 -4.83946 9.89945
lowerneck -12.9795 -3.37143 -6.34641
upperneck 5.61981 -4.39638 10.4381
head 4.17915 -1.74388 3.93523
rclavicle -2.03257e-014 2.46493e-014
rhumerus -13.3668 -9.97116 -58.5018
rradius 81.6025
rwrist -16.9204
rhand -30.4792 7.0201
rfingers 7.12502
rthumb -3.78022 -22.9261
lclavicle -2.03257e-014 2.46493e-014
lhumerus 43.1476 -1.31902 82.8993
lradius 138.868
lwrist 20.1598
lhand -29.9376 14.6212
lfingers 7.12502
lthumb -3.25716 44.5761
rfemur -90.4121 -3.87563 3.60369
rtibia 127.71
rfoot 0.148331 -0.994538
rtoes -1.17539
lfemur -10.8326 -7.19171 -26.4514
ltibia 29.731
lfoot -8.30175 -1.20746
ltoes 10.9907
2878
root 0.322996 18.5421 2.6354 -4.69472 24.2373 2.23323
lowerback 24.6575 -6.24219 -7.92894
upperback 9.00626 -9.54033 2.80113
thorax -1.69404 -4.96718 9.84155
lowerneck -13.6516 -3.36323 -6.37062
upperneck 5.81522 -4.37609 10.535
head 4.35022 -1.70675 3.96718
rclavicle -3.23025e-015 1.27222e-014
rhumerus -13.6756 -10.8775 -58.4625
rradius 80.6049
rwrist -16.7622
rhand -30.2012 7.29075
rfingers 7.12502
rthumb -3.5118 -22.6601
lclavicle -3.23025e-015 1.27222e-014
lhumerus 43.2088 -1.5821 83.1119
lradius 139.081
lwrist 19.8767
lhand -29.989 14.5913
lfingers 7.12502
lthumb -3.30682 44.5454
rfemur -91.4932 -4.05472 4.04348
rtibia 128.181
rfoot 0.206919 -1.13122
rtoes -1.15652
lfemur -10.7269 -7.13598 -26.4537
ltibia 29.4573
lfoot -8.15585 -1.28995
ltoes 11.6935
